<svg width="300" height="300" viewBox="0 0 300 300" fill="none" xmlns="http://www.w3.org/2000/svg">
<rect x="120" y="40" width="60" height="20" fill="#4C4C4C"/>
<rect x="120" y="40" width="60" height="20" fill="#4C4C4C"/>
<rect x="120" y="40" width="60" height="20" fill="#4C4C4C"/>
<rect x="120" y="40" width="60" height="20" fill="#4C4C4C"/>
<rect x="120" y="40" width="60" height="20" fill="#4C4C4C"/>
<rect x="60" y="100" width="60" height="20" fill="#4C4C4C"/>
<rect x="60" y="100" width="60" height="20" fill="#4C4C4C"/>
<rect x="60" y="100" width="60" height="20" fill="#4C4C4C"/>
<rect x="60" y="100" width="60" height="20" fill="#4C4C4C"/>
<rect x="60" y="100" width="60" height="20" fill="#4C4C4C"/>
<rect x="40" y="180" width="60" height="20" transform="rotate(-90 40 180)" fill="#4C4C4C"/>
<rect x="40" y="180" width="60" height="20" transform="rotate(-90 40 180)" fill="#4C4C4C"/>
<rect x="40" y="180" width="60" height="20" transform="rotate(-90 40 180)" fill="#4C4C4C"/>
<rect x="40" y="180" width="60" height="20" transform="rotate(-90 40 180)" fill="#4C4C4C"/>
<rect x="40" y="180" width="60" height="20" transform="rotate(-90 40 180)" fill="#4C4C4C"/>
<rect x="240" y="180" width="60" height="20" transform="rotate(-90 240 180)" fill="#4C4C4C"/>
<rect x="240" y="180" width="60" height="20" transform="rotate(-90 240 180)" fill="#4C4C4C"/>
<rect x="240" y="180" width="60" height="20" transform="rotate(-90 240 180)" fill="#4C4C4C"/>
<rect x="240" y="180" width="60" height="20" transform="rotate(-90 240 180)" fill="#4C4C4C"/>
<rect x="240" y="180" width="60" height="20" transform="rotate(-90 240 180)" fill="#4C4C4C"/>
<rect x="180" y="120" width="60" height="20" transform="rotate(-90 180 120)" fill="#4C4C4C"/>
<rect x="180" y="120" width="60" height="20" transform="rotate(-90 180 120)" fill="#4C4C4C"/>
<rect x="180" y="120" width="60" height="20" transform="rotate(-90 180 120)" fill="#4C4C4C"/>
<rect x="180" y="120" width="60" height="20" transform="rotate(-90 180 120)" fill="#4C4C4C"/>
<rect x="180" y="120" width="60" height="20" transform="rotate(-90 180 120)" fill="#4C4C4C"/>
<rect x="100" y="120" width="60" height="20" transform="rotate(-90 100 120)" fill="#4C4C4C"/>
<rect x="100" y="120" width="60" height="20" transform="rotate(-90 100 120)" fill="#4C4C4C"/>
<rect x="100" y="120" width="60" height="20" transform="rotate(-90 100 120)" fill="#4C4C4C"/>
<rect x="100" y="120" width="60" height="20" transform="rotate(-90 100 120)" fill="#4C4C4C"/>
<rect x="100" y="120" width="60" height="20" transform="rotate(-90 100 120)" fill="#4C4C4C"/>
<rect x="100" y="240" width="60" height="20" transform="rotate(-90 100 240)" fill="#4C4C4C"/>
<rect x="100" y="240" width="60" height="20" transform="rotate(-90 100 240)" fill="#4C4C4C"/>
<rect x="100" y="240" width="60" height="20" transform="rotate(-90 100 240)" fill="#4C4C4C"/>
<rect x="100" y="240" width="60" height="20" transform="rotate(-90 100 240)" fill="#4C4C4C"/>
<rect x="100" y="240" width="60" height="20" transform="rotate(-90 100 240)" fill="#4C4C4C"/>
<rect x="180" y="240" width="60" height="20" transform="rotate(-90 180 240)" fill="#4C4C4C"/>
<rect x="180" y="240" width="60" height="20" transform="rotate(-90 180 240)" fill="#4C4C4C"/>
<rect x="180" y="240" width="60" height="20" transform="rotate(-90 180 240)" fill="#4C4C4C"/>
<rect x="180" y="240" width="60" height="20" transform="rotate(-90 180 240)" fill="#4C4C4C"/>
<rect x="180" y="240" width="60" height="20" transform="rotate(-90 180 240)" fill="#4C4C4C"/>
<rect x="60" y="180" width="60" height="20" fill="#4C4C4C"/>
<rect x="60" y="180" width="60" height="20" fill="#4C4C4C"/>
<rect x="60" y="180" width="60" height="20" fill="#4C4C4C"/>
<rect x="60" y="180" width="60" height="20" fill="#4C4C4C"/>
<rect x="60" y="180" width="60" height="20" fill="#4C4C4C"/>
<rect x="120" y="240" width="60" height="20" fill="#4C4C4C"/>
<rect x="120" y="240" width="60" height="20" fill="#4C4C4C"/>
<rect x="120" y="240" width="60" height="20" fill="#4C4C4C"/>
<rect x="120" y="240" width="60" height="20" fill="#4C4C4C"/>
<rect x="120" y="240" width="60" height="20" fill="#4C4C4C"/>
<rect x="180" y="180" width="60" height="20" fill="#4C4C4C"/>
<rect x="180" y="180" width="60" height="20" fill="#4C4C4C"/>
<rect x="180" y="180" width="60" height="20" fill="#4C4C4C"/>
<rect x="180" y="180" width="60" height="20" fill="#4C4C4C"/>
<rect x="180" y="180" width="60" height="20" fill="#4C4C4C"/>
<rect x="180" y="100" width="60" height="20" fill="#4C4C4C"/>
<rect x="180" y="100" width="60" height="20" fill="#4C4C4C"/>
<rect x="180" y="100" width="60" height="20" fill="#4C4C4C"/>
<rect x="180" y="100" width="60" height="20" fill="#4C4C4C"/>
<rect x="180" y="100" width="60" height="20" fill="#4C4C4C"/>
<rect x="120" y="60" width="60" height="180" fill="#ECECEC"/>
<rect x="120" y="60" width="60" height="180" fill="#ECECEC"/>
<rect x="180" y="120" width="60" height="60" fill="#ECECEC"/>
<rect x="180" y="120" width="60" height="60" fill="#ECECEC"/>
<rect x="60" y="120" width="60" height="60" fill="#ECECEC"/>
<rect x="60" y="120" width="60" height="60" fill="#ECECEC"/>
</svg>
