<svg width="1714" height="333" viewBox="0 0 1714 333" fill="none" xmlns="http://www.w3.org/2000/svg">
<rect x="47" y="89" width="237" height="166" fill="black"/>
<path d="M105.753 115.193C109.189 114.621 119.283 114.335 122.576 114.335C126.441 114.479 130.092 114.98 133.528 115.839C136.965 116.555 139.971 117.772 142.548 119.49C145.269 121.065 147.488 123.141 149.206 125.718C150.773 127.888 151.884 130.515 152.538 133.6C151.749 135.496 151.023 137.452 150.361 139.469C147.809 147.489 146.34 156.077 145.954 165.232C141.019 163.557 135.779 162.125 130.235 160.937C126.799 160.222 123.005 159.363 118.853 158.36C114.844 157.358 110.835 156.284 106.826 155.139C101.243 153.564 96.4463 151.273 92.4374 148.267C88.4286 145.117 86.4241 140.535 86.4241 134.522C86.4241 130.513 87.3548 127.22 89.216 124.643C91.0773 121.922 93.4397 119.846 96.3031 118.415C99.1666 116.84 102.316 115.766 105.753 115.193Z" fill="white"/>
<path fill-rule="evenodd" clip-rule="evenodd" d="M166.5 333C258.455 333 333 258.455 333 166.5C333 74.5446 258.455 0 166.5 0C74.5446 0 0 74.5446 0 166.5C0 258.455 74.5446 333 166.5 333ZM166.468 228.568C164.138 231.778 161.367 234.577 158.154 236.963C153.143 240.686 147.273 243.406 140.544 245.124C133.815 246.842 126.584 247.701 118.853 247.701C110.978 247.701 103.462 246.914 96.303 245.339C89.2875 243.621 82.9878 240.972 77.4041 237.393C71.8203 233.67 67.1671 228.945 63.4446 223.218C59.722 217.491 57.3597 210.619 56.3574 202.601H82.1288C83.2742 206.896 85.1355 210.476 87.7126 213.339C90.2897 216.203 93.2248 218.494 96.5178 220.212C99.954 221.93 103.605 223.147 107.471 223.863C111.336 224.578 115.13 224.936 118.853 224.936C122.862 224.936 126.728 224.65 130.45 224.077C134.173 223.361 137.394 222.216 140.114 220.641C142.835 219.066 145.054 216.99 146.772 214.413C148.49 211.836 149.349 208.471 149.349 204.319C149.349 198.592 147.846 194.44 144.839 191.863C141.832 189.143 137.824 187.138 132.812 185.85C125.94 183.845 118.853 182.127 111.551 180.696C104.392 179.121 97.5916 177.116 91.1488 174.682C86.8536 173.107 82.9163 171.246 79.3369 169.098C75.7575 166.951 72.6077 164.374 69.8874 161.367C67.1671 158.36 65.0195 154.853 63.4446 150.844C62.0128 146.692 61.2969 141.895 61.2969 136.455C61.2969 128.151 62.8719 121.207 66.0217 115.623C69.1715 109.896 73.252 105.314 78.2631 101.878C83.4174 98.4419 89.2159 96.008 95.6588 94.5762C102.102 93.0013 115.417 92.215 122.146 92.215C129.305 92.215 136.105 93.0741 142.548 94.7922C148.991 96.3671 154.718 98.8726 159.729 102.309C163.015 104.562 165.869 107.245 168.293 110.36C173.473 105.433 179.522 101.463 186.441 98.4496C195.461 94.4407 205.913 92.4362 217.796 92.4362C234.548 92.4362 248.364 96.3735 259.245 104.248C270.126 112.123 276.712 123.72 279.003 139.039H254.52C252.659 131.594 248.507 125.724 242.064 121.429C235.621 116.991 227.389 114.771 217.367 114.771C209.349 114.771 202.405 116.275 196.535 119.281C190.808 122.288 186.083 126.297 182.361 131.308C178.638 136.319 175.846 142.189 173.985 148.918C172.267 155.505 171.408 162.448 171.408 169.75C171.408 177.195 172.338 184.283 174.2 191.012C176.061 197.741 178.853 203.683 182.575 208.837C186.441 213.848 191.309 217.857 197.179 220.864C203.049 223.87 209.993 225.374 218.011 225.374C227.89 225.374 236.123 223.226 242.709 218.931C249.438 214.635 253.661 208.837 255.379 201.535H280.292C279.146 208.837 276.712 215.351 272.99 221.078C269.411 226.805 264.901 231.673 259.46 235.682C254.019 239.548 247.72 242.554 240.561 244.702C233.402 246.706 225.742 247.709 217.581 247.709C205.698 247.709 195.246 245.776 186.226 241.91C178.577 238.579 171.991 234.132 166.468 228.568Z" fill="white"/>
<path d="M467.1 135.28C466.38 129.88 463.98 126.04 459.9 123.76C455.82 121.36 450.72 120.04 444.6 119.8C442.44 119.8 440.16 119.98 437.76 120.34C435.48 120.7 433.32 121.42 431.28 122.5C429.24 123.58 427.56 125.02 426.24 126.82C424.92 128.62 424.26 130.84 424.26 133.48C424.14 136.24 424.8 138.58 426.24 140.5C427.8 142.42 429.84 143.98 432.36 145.18C434.16 146.02 436.08 146.8 438.12 147.52C440.28 148.12 442.38 148.72 444.42 149.32C446.46 149.8 448.44 150.22 450.36 150.58C452.28 150.94 453.96 151.3 455.4 151.66C460.56 152.74 465.54 154 470.34 155.44C475.14 156.88 479.4 158.86 483.12 161.38C486.84 163.9 489.84 167.26 492.12 171.46C494.4 175.66 495.6 181.12 495.72 187.84C495.72 195.16 494.34 201.4 491.58 206.56C488.82 211.72 485.1 215.86 480.42 218.98C475.98 222.1 470.82 224.38 464.94 225.82C459.06 227.14 452.58 227.68 445.5 227.44C438.66 227.32 432.24 226.42 426.24 224.74C420.24 222.94 414.9 220.36 410.22 217C405.66 213.64 402 209.44 399.24 204.4C396.48 199.36 394.92 193.42 394.56 186.58H421.2C421.92 189.7 423.12 192.28 424.8 194.32C426.48 196.36 428.46 198.04 430.74 199.36C433.02 200.68 435.54 201.64 438.3 202.24C441.18 202.84 444.06 203.2 446.94 203.32C449.94 203.44 452.82 203.32 455.58 202.96C458.34 202.6 460.74 201.94 462.78 200.98C464.94 199.9 466.62 198.46 467.82 196.66C469.02 194.86 469.62 192.58 469.62 189.82C469.62 185.98 468.42 183.16 466.02 181.36C463.74 179.56 461.22 178.3 458.46 177.58C456.54 177.1 454.8 176.68 453.24 176.32C451.8 175.84 450.36 175.48 448.92 175.24C447.48 174.88 445.98 174.52 444.42 174.16C442.86 173.8 441.06 173.38 439.02 172.9C434.46 171.7 429.72 170.38 424.8 168.94C420 167.38 415.68 165.22 411.84 162.46C407.16 159.22 403.62 155.08 401.22 150.04C398.94 145 397.92 139.42 398.16 133.3C398.52 126.1 400.2 120.16 403.2 115.48C406.2 110.68 410.04 106.9 414.72 104.14C419.4 101.38 424.56 99.4601 430.2 98.3801C435.84 97.3001 441.48 96.8201 447.12 96.9401C453.36 97.0601 459.12 97.9601 464.4 99.6401C469.8 101.2 474.48 103.54 478.44 106.66C482.52 109.78 485.82 113.74 488.34 118.54C490.86 123.34 492.42 128.92 493.02 135.28H467.1ZM542.967 226H516.867V98.5601H542.967V226ZM595.873 202.96H658.333V226H569.953V98.5601H595.873V202.96ZM767.908 98.5601V121.78H702.928V151.48H759.628V174.7H702.928V202.96H767.908V226H676.828V98.5601H767.908ZM812.942 98.5601L873.422 183.88V98.5601H898.982V226H873.962L813.482 141.04V226H787.922V98.5601H812.942ZM913.49 121.78V98.5601H1019.51V121.78H979.55V226H953.45V121.78H913.49ZM1102.33 161.92C1102.33 167.32 1102.99 172.54 1104.31 177.58C1105.75 182.62 1107.85 187.06 1110.61 190.9C1113.49 194.74 1117.09 197.86 1121.41 200.26C1125.85 202.54 1131.13 203.68 1137.25 203.68C1144.93 203.68 1151.23 202 1156.15 198.64C1161.19 195.16 1164.31 190.36 1165.51 184.24H1190.71C1190.11 191.32 1188.25 197.56 1185.13 202.96C1182.01 208.24 1177.99 212.68 1173.07 216.28C1168.15 219.88 1162.57 222.58 1156.33 224.38C1150.09 226.18 1143.61 227.08 1136.89 227.08C1126.93 227.08 1118.11 225.46 1110.43 222.22C1102.87 218.98 1096.45 214.48 1091.17 208.72C1086.01 202.96 1082.11 196.12 1079.47 188.2C1076.83 180.28 1075.51 171.58 1075.51 162.1C1075.51 152.86 1076.83 144.28 1079.47 136.36C1082.23 128.32 1086.25 121.42 1091.53 115.66C1096.81 109.78 1103.23 105.22 1110.79 101.98C1118.47 98.6201 1127.29 96.9401 1137.25 96.9401C1144.21 96.9401 1150.75 97.7801 1156.87 99.4601C1162.99 101.14 1168.45 103.72 1173.25 107.2C1178.05 110.68 1181.95 115.18 1184.95 120.7C1188.07 126.1 1189.99 132.58 1190.71 140.14H1165.51C1164.19 134.02 1161.07 129.16 1156.15 125.56C1151.23 121.96 1144.93 120.16 1137.25 120.16C1131.13 120.16 1125.85 121.3 1121.41 123.58C1117.09 125.74 1113.49 128.74 1110.61 132.58C1107.85 136.42 1105.75 140.92 1104.31 146.08C1102.99 151.12 1102.33 156.4 1102.33 161.92ZM1235.54 202.96H1298V226H1209.62V98.5601H1235.54V202.96ZM1342.6 226H1316.5V98.5601H1342.6V226ZM1460.66 98.5601V121.78H1395.68V151.48H1452.38V174.7H1395.68V202.96H1460.66V226H1369.58V98.5601H1460.66ZM1505.7 98.5601L1566.18 183.88V98.5601H1591.74V226H1566.72L1506.24 141.04V226H1480.68V98.5601H1505.7ZM1606.24 121.78V98.5601H1712.26V121.78H1672.3V226H1646.2V121.78H1606.24Z" fill="white"/>
</svg>
